<svg xmlns="http://www.w3.org/2000/svg" viewBox="0 0 1000 620" font-family="JetBrains Mono, monospace">
  <defs>
    <marker id="a" markerWidth="8" markerHeight="6" refX="7" refY="3" orient="auto">
      <polygon points="0 0, 8 3, 0 6" fill="#64748b"/>
    </marker>
    <marker id="ac" markerWidth="8" markerHeight="6" refX="7" refY="3" orient="auto">
      <polygon points="0 0, 8 3, 0 6" fill="#22d3ee"/>
    </marker>
    <marker id="ag" markerWidth="8" markerHeight="6" refX="7" refY="3" orient="auto">
      <polygon points="0 0, 8 3, 0 6" fill="#34d399"/>
    </marker>
    <marker id="av" markerWidth="8" markerHeight="6" refX="7" refY="3" orient="auto">
      <polygon points="0 0, 8 3, 0 6" fill="#a78bfa"/>
    </marker>
    <pattern id="g" width="30" height="30" patternUnits="userSpaceOnUse">
      <path d="M 30 0 L 0 0 0 30" fill="none" stroke="#1e293b" stroke-width="0.5"/>
    </pattern>
  </defs>

  <!-- Background -->
  <rect width="1000" height="620" fill="#020617"/>
  <rect width="1000" height="620" fill="url(#g)"/>

  <!-- Title -->
  <text x="500" y="30" fill="white" font-size="16" font-weight="700" text-anchor="middle">Mobile Money Gateway — Architecture</text>

  <!-- ---- CLIENTS ---- -->
  <rect x="15" y="55" width="130" height="46" rx="6" fill="#0f172a" stroke="#94a3b8" stroke-width="1.3"/>
  <text x="80" y="72" fill="white" font-size="10" font-weight="600" text-anchor="middle">API Clients</text>
  <text x="80" y="86" fill="#94a3b8" font-size="8" text-anchor="middle">REST · SDK · Mobile</text>

  <rect x="15" y="115" width="130" height="46" rx="6" fill="#0f172a" stroke="#94a3b8" stroke-width="1.3"/>
  <text x="80" y="132" fill="white" font-size="10" font-weight="600" text-anchor="middle">Dashboard</text>
  <text x="80" y="146" fill="#94a3b8" font-size="8" text-anchor="middle">Browser · Inertia SSR</text>

  <!-- ---- API GATEWAY ---- -->
  <rect x="190" y="55" width="155" height="160" rx="8" fill="rgba(6,78,59,0.25)" stroke="#34d399" stroke-width="1.5"/>
  <text x="267" y="80" fill="white" font-size="11" font-weight="600" text-anchor="middle">API Gateway</text>
  <rect x="200" y="92" width="135" height="16" rx="3" fill="rgba(6,78,59,0.4)"/>
  <text x="267" y="103" fill="#94a3b8" font-size="7.5" text-anchor="middle">Auth · API Keys · JWT</text>
  <rect x="200" y="112" width="135" height="16" rx="3" fill="rgba(6,78,59,0.4)"/>
  <text x="267" y="123" fill="#94a3b8" font-size="7.5" text-anchor="middle">Rate Limiting</text>
  <rect x="200" y="132" width="135" height="16" rx="3" fill="rgba(6,78,59,0.4)"/>
  <text x="267" y="143" fill="#94a3b8" font-size="7.5" text-anchor="middle">Validation · VineJS</text>
  <rect x="200" y="152" width="135" height="16" rx="3" fill="rgba(6,78,59,0.4)"/>
  <text x="267" y="163" fill="#94a3b8" font-size="7.5" text-anchor="middle">Idempotency</text>
  <rect x="200" y="172" width="135" height="16" rx="3" fill="rgba(6,78,59,0.4)"/>
  <text x="267" y="183" fill="#94a3b8" font-size="7.5" text-anchor="middle">Webhooks</text>
  <text x="267" y="205" fill="#34d399" font-size="7" text-anchor="middle">AdonisJS 7 · /api/v1</text>

  <!-- ---- CORE SERVICES ---- -->
  <rect x="190" y="235" width="155" height="46" rx="6" fill="rgba(6,78,59,0.25)" stroke="#34d399" stroke-width="1.3"/>
  <text x="267" y="254" fill="white" font-size="10" font-weight="600" text-anchor="middle">Routing Engine</text>
  <text x="267" y="270" fill="#94a3b8" font-size="7.5" text-anchor="middle">MSISDN → Country → Operator → Provider</text>

  <rect x="190" y="295" width="155" height="46" rx="6" fill="rgba(6,78,59,0.25)" stroke="#34d399" stroke-width="1.3"/>
  <text x="267" y="314" fill="white" font-size="10" font-weight="600" text-anchor="middle">Transaction Engine</text>
  <text x="267" y="330" fill="#94a3b8" font-size="7.5" text-anchor="middle">pending → processing → completed</text>

  <!-- ---- PROVIDER SYSTEM ---- -->
  <rect x="390" y="50" width="360" height="280" rx="12" fill="rgba(251,191,36,0.04)" stroke="#fbbf24" stroke-width="1" stroke-dasharray="6,3"/>
  <text x="403" y="68" fill="#fbbf24" font-size="9" font-weight="600">Provider System (Open/Closed)</text>

  <!-- Registry -->
  <rect x="410" y="84" width="320" height="40" rx="6" fill="rgba(120,53,15,0.2)" stroke="#fbbf24" stroke-width="1.3"/>
  <text x="570" y="99" fill="white" font-size="10" font-weight="600" text-anchor="middle">ProviderRegistry</text>
  <text x="570" y="114" fill="#94a3b8" font-size="7.5" text-anchor="middle">Auto-discovery · Sync DB · Contract enforcement</text>

  <!-- Provider cards -->
  <rect x="410" y="137" width="95" height="52" rx="6" fill="rgba(6,78,59,0.25)" stroke="#34d399" stroke-width="1.3"/>
  <text x="457" y="156" fill="white" font-size="9" font-weight="600" text-anchor="middle">Shwary</text>
  <text x="457" y="172" fill="#94a3b8" font-size="7" text-anchor="middle">DRC · KE · UG</text>
  <text x="457" y="184" fill="#34d399" font-size="6.5" text-anchor="middle">✓ payment</text>

  <rect x="517" y="137" width="95" height="52" rx="6" fill="rgba(30,41,59,0.4)" stroke="#64748b" stroke-width="1" stroke-dasharray="3,3"/>
  <text x="564" y="156" fill="#64748b" font-size="9" font-weight="600" text-anchor="middle">Orange</text>
  <text x="564" y="172" fill="#475569" font-size="7" text-anchor="middle">planned</text>

  <rect x="624" y="137" width="95" height="52" rx="6" fill="rgba(30,41,59,0.4)" stroke="#64748b" stroke-width="1" stroke-dasharray="3,3"/>
  <text x="671" y="156" fill="#64748b" font-size="9" font-weight="600" text-anchor="middle">MTN MoMo</text>
  <text x="671" y="172" fill="#475569" font-size="7" text-anchor="middle">planned</text>

  <!-- Provider Routes -->
  <rect x="410" y="202" width="320" height="40" rx="6" fill="rgba(6,78,59,0.2)" stroke="#34d399" stroke-width="1.3"/>
  <text x="570" y="217" fill="white" font-size="9" font-weight="600" text-anchor="middle">Provider Routes</text>
  <text x="570" y="232" fill="#94a3b8" font-size="7" text-anchor="middle">Operator → Provider mapping · Priority · Fallback · Scoped per app</text>

  <!-- BasePaymentProvider contract box -->
  <rect x="410" y="255" width="320" height="40" rx="6" fill="rgba(8,51,68,0.25)" stroke="#22d3ee" stroke-width="1.3"/>
  <text x="570" y="270" fill="white" font-size="9" font-weight="600" text-anchor="middle">BasePaymentProvider</text>
  <text x="570" y="285" fill="#94a3b8" font-size="7" text-anchor="middle">createPayment · getTransaction · webhooks · testConnection · 9 méthodes</text>

  <!-- ---- DATABASE ---- -->
  <rect x="390" y="350" width="360" height="75" rx="8" fill="rgba(76,29,149,0.25)" stroke="#a78bfa" stroke-width="1.5"/>
  <text x="570" y="372" fill="white" font-size="11" font-weight="600" text-anchor="middle">PostgreSQL</text>
  <text x="570" y="390" fill="#94a3b8" font-size="7.5" text-anchor="middle">applications · countries · mobile_operators · providers</text>
  <text x="570" y="404" fill="#94a3b8" font-size="7.5" text-anchor="middle">provider_routes · provider_countries · transactions · webhooks</text>
  <text x="570" y="418" fill="#94a3b8" font-size="7.5" text-anchor="middle">commissions · api_keys · audit_logs · Lucid ORM</text>

  <!-- ---- ADMIN DASHBOARD ---- -->
  <rect x="15" y="180" width="130" height="245" rx="8" fill="rgba(8,51,68,0.25)" stroke="#22d3ee" stroke-width="1.3"/>
  <text x="80" y="200" fill="white" font-size="10" font-weight="600" text-anchor="middle">Admin Panel</text>
  <text x="80" y="216" fill="#94a3b8" font-size="7.5" text-anchor="middle">Inertia.js · React 19</text>
  <text x="80" y="235" fill="#94a3b8" font-size="7" text-anchor="middle">  Dashboard</text>
  <text x="80" y="250" fill="#94a3b8" font-size="7" text-anchor="middle">  Applications</text>
  <text x="80" y="265" fill="#94a3b8" font-size="7" text-anchor="middle">  Providers</text>
  <text x="80" y="280" fill="#94a3b8" font-size="7" text-anchor="middle">  Operators</text>
  <text x="80" y="295" fill="#94a3b8" font-size="7" text-anchor="middle">  Countries</text>
  <text x="80" y="310" fill="#94a3b8" font-size="7" text-anchor="middle">  Transactions</text>
  <text x="80" y="325" fill="#94a3b8" font-size="7" text-anchor="middle">  Routing</text>
  <text x="80" y="340" fill="#94a3b8" font-size="7" text-anchor="middle">  Commissions</text>
  <text x="80" y="355" fill="#94a3b8" font-size="7" text-anchor="middle">  Webhooks</text>
  <text x="80" y="370" fill="#94a3b8" font-size="7" text-anchor="middle">  Settings · API Keys</text>
  <text x="80" y="392" fill="#94a3b8" font-size="7" text-anchor="middle">  API Logs</text>
  <text x="80" y="410" fill="#22d3ee" font-size="6.5" text-anchor="middle">shadcn/ui · sonner · SSR</text>

  <!-- ---- EXTERNAL ---- -->
  <rect x="800" y="84" width="140" height="46" rx="6" fill="rgba(120,53,15,0.2)" stroke="#fbbf24" stroke-width="1.3"/>
  <text x="870" y="103" fill="white" font-size="10" font-weight="600" text-anchor="middle">Shwary API</text>
  <text x="870" y="118" fill="#94a3b8" font-size="8" text-anchor="middle">api.shwary.com</text>

  <rect x="800" y="145" width="140" height="40" rx="6" fill="rgba(30,41,59,0.4)" stroke="#64748b" stroke-width="1.3"/>
  <text x="870" y="162" fill="white" font-size="10" font-weight="600" text-anchor="middle">Operator APIs</text>
  <text x="870" y="176" fill="#94a3b8" font-size="7.5" text-anchor="middle">Orange · MTN · Airtel</text>

  <!-- ---- LEGEND ---- -->
  <rect x="800" y="250" width="140" height="175" rx="6" fill="#0f172a" stroke="#1e293b" stroke-width="1"/>
  <text x="870" y="268" fill="white" font-size="9" font-weight="600" text-anchor="middle">Legend</text>
  <rect x="810" y="278" width="14" height="8" rx="2" fill="rgba(6,78,59,0.4)" stroke="#34d399" stroke-width="1"/>
  <text x="830" y="285" fill="#94a3b8" font-size="7">Backend</text>
  <rect x="810" y="294" width="14" height="8" rx="2" fill="rgba(76,29,149,0.4)" stroke="#a78bfa" stroke-width="1"/>
  <text x="830" y="301" fill="#94a3b8" font-size="7">Database</text>
  <rect x="810" y="310" width="14" height="8" rx="2" fill="rgba(120,53,15,0.3)" stroke="#fbbf24" stroke-width="1"/>
  <text x="830" y="317" fill="#94a3b8" font-size="7">External API</text>
  <rect x="810" y="326" width="14" height="8" rx="2" fill="rgba(8,51,68,0.4)" stroke="#22d3ee" stroke-width="1"/>
  <text x="830" y="333" fill="#94a3b8" font-size="7">Frontend</text>
  <rect x="810" y="342" width="14" height="8" rx="2" fill="#0f172a" stroke="#94a3b8" stroke-width="1"/>
  <text x="830" y="349" fill="#94a3b8" font-size="7">Client/User</text>
  <line x1="810" y1="362" x2="824" y2="362" stroke="#fb7185" stroke-width="1" stroke-dasharray="4,4"/>
  <text x="830" y="365" fill="#94a3b8" font-size="7">Webhook</text>
  <rect x="810" y="370" width="14" height="8" rx="2" fill="transparent" stroke="#fbbf24" stroke-width="1" stroke-dasharray="6,3"/>
  <text x="830" y="377" fill="#94a3b8" font-size="7">Boundary</text>

  <!-- ---- ARROWS ---- -->
  <!-- Clients → Gateway -->
  <line x1="145" y1="78" x2="188" y2="78" stroke="#22d3ee" stroke-width="1.3" marker-end="url(#ac)"/>
  <line x1="145" y1="138" x2="188" y2="138" stroke="#22d3ee" stroke-width="1.3" marker-end="url(#ac)"/>

  <!-- Gateway → Services -->
  <line x1="267" y1="215" x2="267" y2="233" stroke="#34d399" stroke-width="1.3" marker-end="url(#ag)"/>
  <line x1="267" y1="281" x2="267" y2="293" stroke="#34d399" stroke-width="1.3" marker-end="url(#ag)"/>

  <!-- Gateway → Provider System (resolve) -->
  <line x1="345" y1="130" x2="388" y2="130" stroke="#34d399" stroke-width="1.3" marker-end="url(#ag)"/>
  <text x="366" y="124" fill="#94a3b8" font-size="7" text-anchor="middle">resolve</text>

  <!-- Transaction → DB -->
  <line x1="267" y1="341" x2="267" y2="380" stroke="#a78bfa" stroke-width="1.3" marker-end="url(#av)"/>

  <!-- Provider System → DB -->
  <line x1="570" y1="335" x2="570" y2="348" stroke="#a78bfa" stroke-width="1.3" marker-end="url(#av)"/>

  <!-- Shwary → External API -->
  <line x1="505" y1="163" x2="798" y2="107" stroke="#fbbf24" stroke-width="1.3" marker-end="url(#ag)"/>
  <text x="655" y="130" fill="#94a3b8" font-size="7" text-anchor="middle">HTTPS</text>

  <!-- External → Webhook callback -->
  <line x1="870" y1="130" x2="870" y2="295" stroke="#fb7185" stroke-width="1" stroke-dasharray="4,4"/>
  <line x1="870" y1="295" x2="347" y2="295" stroke="#fb7185" stroke-width="1" stroke-dasharray="4,4" marker-end="url(#ag)"/>
  <text x="610" y="290" fill="#fb7185" font-size="7" text-anchor="middle">webhook callback</text>

  <!-- Admin → Gateway (Inertia SSR) -->
  <line x1="145" y1="340" x2="188" y2="340" stroke="#22d3ee" stroke-width="1.3" marker-end="url(#ac)"/>

  <!-- ---- FOOTER ---- -->
  <text x="500" y="455" fill="#475569" font-size="8" text-anchor="middle">Mobile Money Gateway · AdonisJS 7 · Inertia.js · React · PostgreSQL · MIT</text>

  <!-- ---- DATA MODEL (bottom) ---- -->
  <rect x="15" y="470" width="970" height="140" rx="8" fill="rgba(76,29,149,0.08)" stroke="#a78bfa" stroke-width="1" stroke-dasharray="4,4"/>
  <text x="500" y="490" fill="#a78bfa" font-size="10" font-weight="600" text-anchor="middle">Data Model</text>

  <!-- Applications -->
  <rect x="35" y="505" width="110" height="30" rx="4" fill="rgba(76,29,149,0.2)" stroke="#a78bfa" stroke-width="1"/>
  <text x="90" y="524" fill="white" font-size="9" font-weight="600" text-anchor="middle">applications</text>

  <!-- Countries -->
  <rect x="160" y="505" width="100" height="30" rx="4" fill="rgba(76,29,149,0.2)" stroke="#a78bfa" stroke-width="1"/>
  <text x="210" y="524" fill="white" font-size="9" font-weight="600" text-anchor="middle">countries</text>

  <!-- Mobile Operators -->
  <rect x="275" y="505" width="115" height="30" rx="4" fill="rgba(76,29,149,0.2)" stroke="#a78bfa" stroke-width="1"/>
  <text x="332" y="524" fill="white" font-size="9" font-weight="600" text-anchor="middle">mobile_operators</text>

  <!-- Providers -->
  <rect x="405" y="505" width="100" height="30" rx="4" fill="rgba(76,29,149,0.2)" stroke="#a78bfa" stroke-width="1"/>
  <text x="455" y="524" fill="white" font-size="9" font-weight="600" text-anchor="middle">providers</text>

  <!-- Transactions -->
  <rect x="520" y="505" width="115" height="30" rx="4" fill="rgba(76,29,149,0.2)" stroke="#a78bfa" stroke-width="1"/>
  <text x="577" y="524" fill="white" font-size="9" font-weight="600" text-anchor="middle">transactions</text>

  <!-- Webhooks -->
  <rect x="650" y="505" width="100" height="30" rx="4" fill="rgba(76,29,149,0.2)" stroke="#a78bfa" stroke-width="1"/>
  <text x="700" y="524" fill="white" font-size="9" font-weight="600" text-anchor="middle">webhooks</text>

  <!-- Commissions -->
  <rect x="765" y="505" width="110" height="30" rx="4" fill="rgba(76,29,149,0.2)" stroke="#a78bfa" stroke-width="1"/>
  <text x="820" y="524" fill="white" font-size="9" font-weight="600" text-anchor="middle">commissions</text>

  <!-- Pivot tables -->
  <rect x="35" y="548" width="140" height="24" rx="3" fill="rgba(6,78,59,0.2)" stroke="#34d399" stroke-width="0.8"/>
  <text x="105" y="564" fill="#94a3b8" font-size="7" text-anchor="middle">provider_countries</text>

  <rect x="190" y="548" width="130" height="24" rx="3" fill="rgba(6,78,59,0.2)" stroke="#34d399" stroke-width="0.8"/>
  <text x="255" y="564" fill="#94a3b8" font-size="7" text-anchor="middle">provider_routes</text>

  <rect x="335" y="548" width="140" height="24" rx="3" fill="rgba(6,78,59,0.2)" stroke="#34d399" stroke-width="0.8"/>
  <text x="405" y="564" fill="#94a3b8" font-size="7" text-anchor="middle">operator_prefixes</text>

  <rect x="490" y="548" width="150" height="24" rx="3" fill="rgba(6,78,59,0.2)" stroke="#34d399" stroke-width="0.8"/>
  <text x="565" y="564" fill="#94a3b8" font-size="7" text-anchor="middle">transaction_events</text>

  <rect x="655" y="548" width="145" height="24" rx="3" fill="rgba(6,78,59,0.2)" stroke="#34d399" stroke-width="0.8"/>
  <text x="727" y="564" fill="#94a3b8" font-size="7" text-anchor="middle">webhook_deliveries</text>

  <!-- Arrows between data model entities -->
  <line x1="145" y1="520" x2="158" y2="520" stroke="#64748b" stroke-width="0.8" marker-end="url(#a)"/>
  <line x1="260" y1="520" x2="273" y2="520" stroke="#64748b" stroke-width="0.8" marker-end="url(#a)"/>
  <line x1="390" y1="520" x2="403" y2="520" stroke="#64748b" stroke-width="0.8" marker-end="url(#a)"/>
  <line x1="505" y1="520" x2="518" y2="520" stroke="#64748b" stroke-width="0.8" marker-end="url(#a)"/>
  <line x1="635" y1="520" x2="648" y2="520" stroke="#64748b" stroke-width="0.8" marker-end="url(#a)"/>
  <line x1="750" y1="520" x2="763" y2="520" stroke="#64748b" stroke-width="0.8" marker-end="url(#a)"/>

</svg>
